<svg id="Layer_1" data-name="Layer 1" xmlns="http://www.w3.org/2000/svg" viewBox="0 0 454.29 44.38"><defs><style>.cls-1{fill:none;stroke:#231f20;stroke-miterlimit:10;}</style></defs><path class="cls-1" d="M78.83,117.34c.06-11.88,10-21.54,22-21.6a22.45,22.45,0,0,1,13.86,4.68,3.44,3.44,0,0,1-4.2,5.46,15,15,0,0,0-9.66-3.3,15.88,15.88,0,0,0-10.8,4.32,14.8,14.8,0,0,0-4.38,10.44,14.59,14.59,0,0,0,4.38,10.44,15.88,15.88,0,0,0,10.8,4.32,15.07,15.07,0,0,0,9.66-3.3,3.64,3.64,0,0,1,4.8.66,3.54,3.54,0,0,1-.6,4.8,22.45,22.45,0,0,1-13.86,4.68A22,22,0,0,1,78.83,117.34Z" transform="translate(-78.33 -95.24)"/><path class="cls-1" d="M151.67,124v11.76a3.2,3.2,0,0,1-3.18,3.18,3.27,3.27,0,0,1-3.12-2.58,13.63,13.63,0,0,1-8,2.58,13.94,13.94,0,0,1-10.2-4.38A15.36,15.36,0,0,1,123.11,124a15.14,15.14,0,0,1,4.08-10.56,13.82,13.82,0,0,1,10.2-4.5,13.68,13.68,0,0,1,8,2.64,3.26,3.26,0,0,1,3.12-2.64,3.21,3.21,0,0,1,3.18,3.24Zm-6.36,0a8.82,8.82,0,0,0-2.34-6.18,7.42,7.42,0,0,0-5.58-2.46,7.23,7.23,0,0,0-5.58,2.46,8.79,8.79,0,0,0-2.28,6.18,9,9,0,0,0,2.28,6.18,7.56,7.56,0,0,0,5.58,2.34,7.76,7.76,0,0,0,5.58-2.34A9,9,0,0,0,145.31,124Z" transform="translate(-78.33 -95.24)"/><path class="cls-1" d="M181.91,112.12a3.2,3.2,0,0,1-3.18,3.18,5.73,5.73,0,0,0-3.6,1.14,9,9,0,0,0-2.76,2.88,18.41,18.41,0,0,0-2.46,5v11.4a3.27,3.27,0,0,1-3.3,3.18,3.2,3.2,0,0,1-3.18-3.18V112.12a3.15,3.15,0,0,1,3.18-3.12,3.22,3.22,0,0,1,3.3,3.12v.42a7.89,7.89,0,0,1,1.26-1.2,13.16,13.16,0,0,1,7.56-2.34A3.11,3.11,0,0,1,181.91,112.12Z" transform="translate(-78.33 -95.24)"/><path class="cls-1" d="M188.33,130.36a3.12,3.12,0,0,1,4.5-.48,11,11,0,0,0,6.6,2.64,8,8,0,0,0,4.08-1.14,2.46,2.46,0,0,0,1.08-1.8.9.9,0,0,0-.18-.6c-.06-.18-.3-.42-.78-.72a13.91,13.91,0,0,0-4.8-1.68h-.06a23,23,0,0,1-5.22-1.56,10,10,0,0,1-4.14-3.48,7.27,7.27,0,0,1-1-3.78,8.43,8.43,0,0,1,3.54-6.6,12.91,12.91,0,0,1,7.38-2.22,15.43,15.43,0,0,1,9,3.3,3.31,3.31,0,0,1,1,4.44,3.18,3.18,0,0,1-4.44.84c-1.92-1.26-3.6-2.22-5.52-2.22a6.11,6.11,0,0,0-3.6,1.08,1.83,1.83,0,0,0-1,1.38.65.65,0,0,0,.12.48,1.62,1.62,0,0,0,.66.6,12.23,12.23,0,0,0,4.38,1.44l.06.06H200a21.6,21.6,0,0,1,5.58,1.74,9.32,9.32,0,0,1,4.26,3.54,7.77,7.77,0,0,1,1.14,4,8.66,8.66,0,0,1-3.78,7,13.65,13.65,0,0,1-7.8,2.4,17.43,17.43,0,0,1-10.68-4.14A3.2,3.2,0,0,1,188.33,130.36Z" transform="translate(-78.33 -95.24)"/><path class="cls-1" d="M222.05,134.56A15,15,0,0,1,217.91,124a15.48,15.48,0,0,1,4.14-10.5,14,14,0,0,1,10.32-4.56,13.27,13.27,0,0,1,10,4.56,15,15,0,0,1,4.19,10.5,14.55,14.55,0,0,1-4.19,10.56,13.27,13.27,0,0,1-10,4.56A14,14,0,0,1,222.05,134.56Zm2.4-10.56a9.7,9.7,0,0,0,2.16,6.36,8.12,8.12,0,0,0,5.76,2.22,7.86,7.86,0,0,0,5.52-2.22,9.22,9.22,0,0,0,2.34-6.36,9,9,0,0,0-2.34-6.24,8.48,8.48,0,0,0-5.52-2.28,8.72,8.72,0,0,0-5.76,2.28A9.49,9.49,0,0,0,224.45,124Z" transform="translate(-78.33 -95.24)"/><path class="cls-1" d="M281.8,121.42v14.34a3.15,3.15,0,0,1-3.12,3.18,3.24,3.24,0,0,1-3.18-3.18V121.42a6.15,6.15,0,0,0-6.23-6.06,6,6,0,0,0-6,6.06v14.34a1.19,1.19,0,0,1-.12.6,3.28,3.28,0,0,1-3.18,2.58,3.16,3.16,0,0,1-3.18-3.18V112.12a3.16,3.16,0,0,1,3.18-3.18,3.24,3.24,0,0,1,2.94,1.86,12,12,0,0,1,6.36-1.86A12.56,12.56,0,0,1,281.8,121.42Z" transform="translate(-78.33 -95.24)"/><path class="cls-1" d="M337.9,103.6h-9.54v32a3.25,3.25,0,0,1-3.3,3.3,3.29,3.29,0,0,1-3.3-3.3v-32h-9.47a3.34,3.34,0,0,1-3.3-3.36,3.25,3.25,0,0,1,3.3-3.3H337.9a3.29,3.29,0,0,1,3.3,3.3A3.38,3.38,0,0,1,337.9,103.6Z" transform="translate(-78.33 -95.24)"/><path class="cls-1" d="M340.3,123.94a14.86,14.86,0,0,1,14.64-15,14.35,14.35,0,0,1,14.46,13.92v.3a1.66,1.66,0,0,1-.06.54,2.89,2.89,0,0,1-3.12,2.4H347.14a7.87,7.87,0,0,0,2,4,9.28,9.28,0,0,0,5.76,2.7,9.81,9.81,0,0,0,6.24-1.5c1.26-1.32,3.72-1.14,4.5-.18a2.74,2.74,0,0,1,0,3.9,15.16,15.16,0,0,1-10.74,4A14.9,14.9,0,0,1,340.3,123.94Zm6.54-2.94h17c-.6-2.4-3.66-5.94-8.88-6.36A8.39,8.39,0,0,0,346.84,121Z" transform="translate(-78.33 -95.24)"/><path class="cls-1" d="M396.16,112.12A3.2,3.2,0,0,1,393,115.3a5.73,5.73,0,0,0-3.6,1.14,9,9,0,0,0-2.76,2.88,18.41,18.41,0,0,0-2.46,5v11.4a3.27,3.27,0,0,1-3.3,3.18,3.2,3.2,0,0,1-3.18-3.18V112.12a3.15,3.15,0,0,1,3.18-3.12,3.22,3.22,0,0,1,3.3,3.12v.42a7.89,7.89,0,0,1,1.26-1.2A13.16,13.16,0,0,1,393,109,3.11,3.11,0,0,1,396.16,112.12Z" transform="translate(-78.33 -95.24)"/><path class="cls-1" d="M404.68,135.64v-35.4a3.29,3.29,0,0,1,3.3-3.3h8.52a11.4,11.4,0,0,1,9.12,18.24,12.85,12.85,0,0,1-6.78,23.76H408.22a.06.06,0,0,1-.06-.06c-.12,0-.12.06-.18.06A3.33,3.33,0,0,1,404.68,135.64Zm6.66-22.44h5.16a4.81,4.81,0,0,0,4.74-4.86,4.71,4.71,0,0,0-4.74-4.74h-5.16Zm0,19.08h7.5a6.21,6.21,0,0,0,0-12.42h-7.5Z" transform="translate(-78.33 -95.24)"/><path class="cls-1" d="M451.54,138.94a12.55,12.55,0,0,1-12.48-12.48V112.12a3.24,3.24,0,0,1,3.18-3.18,3.2,3.2,0,0,1,3.18,3.18v14.34a6.07,6.07,0,0,0,6.12,6.12,6.22,6.22,0,0,0,6.3-6.12V112.12a3.15,3.15,0,0,1,3.12-3.18,3.34,3.34,0,0,1,3.24,3.18v14.34A12.66,12.66,0,0,1,451.54,138.94Z" transform="translate(-78.33 -95.24)"/><path class="cls-1" d="M475,130.36a3.12,3.12,0,0,1,4.5-.48,11,11,0,0,0,6.6,2.64,8,8,0,0,0,4.08-1.14,2.46,2.46,0,0,0,1.08-1.8.9.9,0,0,0-.18-.6c-.06-.18-.3-.42-.78-.72a13.91,13.91,0,0,0-4.8-1.68h-.06a23,23,0,0,1-5.22-1.56,10,10,0,0,1-4.14-3.48,7.27,7.27,0,0,1-1-3.78,8.43,8.43,0,0,1,3.54-6.6,12.91,12.91,0,0,1,7.38-2.22,15.43,15.43,0,0,1,9,3.3,3.31,3.31,0,0,1,1,4.44,3.18,3.18,0,0,1-4.44.84c-1.92-1.26-3.6-2.22-5.52-2.22a6.11,6.11,0,0,0-3.6,1.08,1.83,1.83,0,0,0-1,1.38.65.65,0,0,0,.12.48,1.62,1.62,0,0,0,.66.6,12.23,12.23,0,0,0,4.38,1.44l.06.06h.06a21.6,21.6,0,0,1,5.58,1.74,9.32,9.32,0,0,1,4.26,3.54,7.77,7.77,0,0,1,1.14,4,8.66,8.66,0,0,1-3.78,7,13.65,13.65,0,0,1-7.8,2.4,17.43,17.43,0,0,1-10.68-4.14A3.2,3.2,0,0,1,475,130.36Z" transform="translate(-78.33 -95.24)"/><path class="cls-1" d="M512.62,135.64a3.3,3.3,0,0,1-3.36,3.3,3.4,3.4,0,0,1-3.18-2.46,3.54,3.54,0,0,1-.12-.84v-35.4a3.33,3.33,0,0,1,6.66,0v10.44a13.68,13.68,0,0,1,6.42-1.74,13.12,13.12,0,0,1,13.08,13.14v13.56a3.3,3.3,0,1,1-6.6,0V122.08a6.45,6.45,0,1,0-12.9,0Z" transform="translate(-78.33 -95.24)"/></svg>